<?xml version="1.0" encoding="UTF-8"?>
<svg xmlns="http://www.w3.org/2000/svg" xmlns:xlink="http://www.w3.org/1999/xlink" viewBox="0 0 50 50" width="50px" height="50px">
<g id="surface59135696">
<path style=" stroke:none;fill-rule:nonzero;fill:rgb(94.117647%,38.431373%,57.254905%);fill-opacity:1;" d="M 41.527344 27.039062 C 39.925781 27.046875 38.539062 27.429688 37.375 28.003906 C 36.949219 27.15625 36.519531 26.410156 36.449219 25.851562 C 36.363281 25.207031 36.265625 24.816406 36.367188 24.046875 C 36.46875 23.273438 36.917969 22.179688 36.910156 22.097656 C 36.902344 22.015625 36.808594 21.621094 35.886719 21.617188 C 34.960938 21.609375 34.171875 21.792969 34.078125 22.039062 C 33.988281 22.28125 33.808594 22.832031 33.699219 23.402344 C 33.535156 24.242188 31.851562 27.230469 30.898438 28.792969 C 30.585938 28.179688 30.320312 27.644531 30.265625 27.21875 C 30.179688 26.570312 30.082031 26.183594 30.183594 25.410156 C 30.285156 24.640625 30.734375 23.546875 30.726562 23.464844 C 30.722656 23.382812 30.628906 22.988281 29.703125 22.980469 C 28.777344 22.976562 27.988281 23.160156 27.894531 23.402344 C 27.804688 23.648438 27.703125 24.214844 27.515625 24.769531 C 27.324219 25.320312 25.089844 30.304688 24.503906 31.597656 C 24.203125 32.253906 23.945312 32.785156 23.761719 33.144531 C 23.757812 33.144531 23.757812 33.144531 23.757812 33.144531 C 23.757812 33.144531 23.746094 33.167969 23.730469 33.207031 C 23.570312 33.515625 23.480469 33.683594 23.480469 33.683594 C 23.480469 33.683594 23.480469 33.6875 23.480469 33.691406 C 23.355469 33.917969 23.222656 34.125 23.160156 34.125 C 23.113281 34.125 23.019531 33.523438 23.179688 32.699219 C 23.511719 30.972656 24.308594 28.273438 24.304688 28.179688 C 24.300781 28.132812 24.453125 27.664062 23.78125 27.417969 C 23.128906 27.179688 22.898438 27.578125 22.835938 27.578125 C 22.78125 27.578125 22.738281 27.71875 22.738281 27.71875 C 22.738281 27.71875 23.464844 24.6875 21.351562 24.6875 C 20.03125 24.6875 18.203125 26.132812 17.300781 27.441406 C 16.730469 27.75 15.515625 28.414062 14.222656 29.125 C 13.726562 29.398438 13.222656 29.675781 12.742188 29.941406 C 12.710938 29.902344 12.675781 29.867188 12.644531 29.832031 C 10.082031 27.101562 5.347656 25.167969 5.546875 21.492188 C 5.621094 20.160156 6.085938 16.640625 14.644531 12.378906 C 21.65625 8.882812 27.269531 9.84375 28.238281 11.976562 C 29.625 15.019531 25.238281 20.675781 17.957031 21.492188 C 15.183594 21.804688 13.722656 20.730469 13.359375 20.328125 C 12.976562 19.90625 12.917969 19.886719 12.777344 19.96875 C 12.542969 20.097656 12.691406 20.46875 12.777344 20.691406 C 12.996094 21.257812 13.886719 22.257812 15.40625 22.757812 C 16.746094 23.199219 20.003906 23.441406 23.941406 21.914062 C 28.355469 20.210938 31.800781 15.460938 30.785156 11.492188 C 29.757812 7.457031 23.066406 6.132812 16.730469 8.382812 C 12.957031 9.722656 8.878906 11.824219 5.945312 14.566406 C 2.457031 17.828125 1.898438 20.667969 2.128906 21.855469 C 2.941406 26.074219 8.753906 28.820312 11.082031 30.851562 C 10.964844 30.917969 10.859375 30.976562 10.761719 31.03125 C 9.59375 31.605469 5.164062 33.925781 4.054688 36.375 C 2.796875 39.152344 4.253906 41.148438 5.21875 41.414062 C 8.207031 42.246094 11.273438 40.75 12.925781 38.292969 C 14.570312 35.835938 14.371094 32.632812 13.613281 31.175781 C 13.605469 31.15625 13.59375 31.136719 13.585938 31.121094 C 13.886719 30.941406 14.195312 30.761719 14.496094 30.582031 C 15.089844 30.230469 15.675781 29.90625 16.179688 29.632812 C 15.898438 30.40625 15.691406 31.335938 15.582031 32.679688 C 15.457031 34.257812 16.101562 36.296875 16.949219 37.097656 C 17.320312 37.449219 17.769531 37.460938 18.050781 37.460938 C 19.035156 37.460938 19.484375 36.640625 19.980469 35.671875 C 20.585938 34.484375 21.125 33.101562 21.125 33.101562 C 21.125 33.101562 20.449219 36.835938 22.289062 36.835938 C 22.960938 36.835938 23.632812 35.964844 23.933594 35.523438 C 23.9375 35.527344 23.9375 35.53125 23.9375 35.53125 C 23.9375 35.53125 23.953125 35.503906 23.988281 35.445312 C 24.058594 35.339844 24.097656 35.269531 24.097656 35.269531 C 24.097656 35.269531 24.097656 35.261719 24.101562 35.25 C 24.371094 34.785156 24.96875 33.714844 25.863281 31.957031 C 27.023438 29.683594 28.132812 26.835938 28.132812 26.835938 C 28.132812 26.835938 28.238281 27.53125 28.574219 28.683594 C 28.773438 29.363281 29.195312 30.109375 29.53125 30.828125 C 29.261719 31.203125 29.097656 31.414062 29.097656 31.414062 C 29.097656 31.414062 29.097656 31.417969 29.101562 31.425781 C 28.886719 31.710938 28.648438 32.019531 28.394531 32.320312 C 27.480469 33.410156 26.390625 34.652344 26.246094 35.011719 C 26.074219 35.433594 26.113281 35.742188 26.445312 35.996094 C 26.691406 36.175781 27.121094 36.207031 27.570312 36.175781 C 28.394531 36.121094 28.972656 35.917969 29.257812 35.792969 C 29.699219 35.636719 30.21875 35.386719 30.703125 35.03125 C 31.601562 34.371094 32.140625 33.429688 32.089844 32.179688 C 32.058594 31.492188 31.839844 30.808594 31.5625 30.164062 C 31.644531 30.046875 31.726562 29.929688 31.808594 29.808594 C 33.222656 27.742188 34.320312 25.472656 34.320312 25.472656 C 34.320312 25.472656 34.421875 26.167969 34.761719 27.320312 C 34.929688 27.902344 35.269531 28.539062 35.574219 29.164062 C 34.246094 30.242188 33.421875 31.496094 33.132812 32.320312 C 32.605469 33.84375 33.019531 34.535156 33.796875 34.691406 C 34.148438 34.761719 34.648438 34.601562 35.019531 34.441406 C 35.488281 34.289062 36.046875 34.03125 36.570312 33.644531 C 37.464844 32.988281 38.328125 32.0625 38.277344 30.816406 C 38.253906 30.246094 38.097656 29.679688 37.886719 29.140625 C 39.015625 28.667969 40.472656 28.410156 42.332031 28.625 C 46.320312 29.089844 47.101562 31.582031 46.949219 32.621094 C 46.800781 33.664062 45.964844 34.238281 45.683594 34.410156 C 45.40625 34.582031 45.320312 34.644531 45.34375 34.769531 C 45.378906 34.957031 45.507812 34.949219 45.746094 34.910156 C 46.074219 34.855469 47.839844 34.0625 47.914062 32.140625 C 48.007812 29.695312 45.671875 27.015625 41.527344 27.039062 Z M 10.800781 37.394531 C 9.480469 38.835938 7.636719 39.378906 6.847656 38.921875 C 5.992188 38.425781 6.332031 36.304688 7.949219 34.777344 C 8.9375 33.847656 10.210938 32.988281 11.058594 32.460938 C 11.25 32.34375 11.535156 32.175781 11.878906 31.96875 C 11.933594 31.933594 11.964844 31.917969 11.964844 31.917969 L 11.964844 31.914062 C 12.03125 31.875 12.101562 31.835938 12.167969 31.792969 C 12.761719 33.96875 12.1875 35.882812 10.800781 37.394531 Z M 20.421875 30.855469 C 19.960938 31.976562 19 34.847656 18.414062 34.691406 C 17.910156 34.558594 17.605469 32.378906 18.3125 30.234375 C 18.667969 29.152344 19.433594 27.863281 19.878906 27.363281 C 20.601562 26.554688 21.394531 26.292969 21.585938 26.621094 C 21.832031 27.035156 20.710938 30.152344 20.421875 30.855469 Z M 28.367188 34.648438 C 28.175781 34.75 27.996094 34.816406 27.914062 34.765625 C 27.851562 34.730469 27.992188 34.59375 27.992188 34.59375 C 27.992188 34.59375 28.988281 33.523438 29.378906 33.039062 C 29.605469 32.753906 29.871094 32.417969 30.15625 32.042969 C 30.160156 32.082031 30.160156 32.117188 30.160156 32.15625 C 30.160156 33.4375 28.921875 34.300781 28.367188 34.648438 Z M 34.492188 33.253906 C 34.34375 33.148438 34.371094 32.816406 34.847656 31.773438 C 35.035156 31.363281 35.464844 30.675781 36.207031 30.015625 C 36.292969 30.289062 36.347656 30.546875 36.347656 30.789062 C 36.335938 32.402344 35.1875 33.003906 34.492188 33.253906 Z M 34.492188 33.253906 "/>
</g>
</svg>
