<?xml version="1.0" encoding="UTF-8"?><svg id="a" xmlns="http://www.w3.org/2000/svg" width="48" height="48" viewBox="0 0 48 48"><path d="M27.28,46.19h-6.64l-.49-1.75c-.12-.44-.31-1.1-2.13-1.1H9.23c-3.09,0-5.43-.8-6.96-2.37C.76,39.42,0,37.04,0,33.92H4.79c0,1.79,.33,3.11,.92,3.72,.58,.6,1.8,.92,3.52,.92h8.78c3.23,0,4.97,1.34,5.9,2.73,.93-1.4,2.71-2.73,6.13-2.73h8.23c2.63,0,3.63-.59,4-.95,.61-.59,.94-1.9,.94-3.69v-.27h4.79v.27c0,3.19-.81,5.59-2.4,7.13-1.6,1.55-3.99,2.3-7.33,2.3h-8.23c-2.06,0-2.23,.66-2.31,1.02l-.45,1.82ZM4.79,33.92H0v-.27H4.79v.27Z" fill="#41aa74"/><polygon points="40.4 18 33.94 18 24 6.99 14.07 18 7.61 18 22.22 1.81 25.78 1.81 40.4 18" fill="#41aa74"/><path d="M26.99,33.01h-6.04l-.49-1.75c-.07-.25-.15-.52-1.23-.52h-7c-2.6,0-4.58-.69-5.89-2.04-1.29-1.33-1.95-3.34-1.95-5.96h4.79c0,1.81,.42,2.44,.6,2.63,.17,.17,.75,.58,2.45,.58h7c2.02,0,3.64,.66,4.71,1.87,.88-.99,2.36-1.87,4.87-1.87h6.56c2.05,0,2.7-.47,2.84-.62,.18-.18,.6-.78,.6-2.59v-.19h4.79v.19c0,2.68-.69,4.71-2.06,6.03-1.37,1.32-3.39,1.97-6.18,1.97h-6.56c-1.26,0-1.34,.3-1.37,.44l-.45,1.82ZM9.18,22.75H4.39v-.19h4.79v.19Z" fill="#41aa74"/></svg>