<?xml version="1.0" encoding="UTF-8"?><svg id="a" xmlns="http://www.w3.org/2000/svg" width="48" height="48" viewBox="0 0 48 48"><path d="M34.92,13.83C30.31,6.92,25.4,1.54,25.2,1.31l-1.2-1.31-1.2,1.31c-.21,.23-5.11,5.61-9.73,12.52-6.38,9.53-8.93,17.02-7.59,22.26,1.33,5.18,5,8.89,10.63,10.72,3.85,1.25,7.33,1.2,7.88,1.19,.08,0,.21,0,.38,0,1.13,0,4.18-.11,7.5-1.19,5.62-1.83,9.3-5.54,10.63-10.72,1.34-5.24-1.21-12.73-7.59-22.26ZM8.55,31.22v-.08c.15-.93,.39-1.9,.71-2.9,.03,.03,.05,.06,.08,.09,1.03,1.06,2.61,1.6,4.7,1.6h5.92c1.23,0,1.35,.44,1.43,.74l.33,1.18h4.49l.3-1.23c.06-.24,.17-.68,1.55-.68h5.55c2.25,0,3.87-.51,4.95-1.55,.06-.05,.1-.12,.16-.17,.32,1.01,.57,1.99,.71,2.93v.09c0,1.51-.29,2.59-.83,3.11-.39,.38-1.28,.82-3.35,.82h-6.5c-2.75,0-4.09,1.13-4.74,2.25h-.19c-.66-1.11-1.97-2.25-4.57-2.25h-6.94c-1.43,0-2.46-.28-2.97-.81-.53-.54-.8-1.62-.8-3.13Zm3.61-9.61c.57,.11,1.19,.17,1.88,.17h5.92c1.23,0,1.35,.44,1.43,.74l.33,1.18h4.49l.3-1.24c.06-.24,.17-.68,1.55-.68h5.55c.82,0,1.55-.07,2.2-.2,.4,.74,.77,1.47,1.12,2.2-.03,1.09-.25,1.9-.63,2.27-.25,.24-.92,.64-2.69,.64h-5.55c-2.3,0-3.5,.89-4.13,1.83-.63-.94-1.8-1.83-3.98-1.83h-5.92c-1.14,0-1.98-.22-2.37-.62-.37-.39-.59-1.19-.61-2.28,.35-.72,.72-1.45,1.11-2.17Zm21.91-3.08c-.14,0-.29,0-.45,0h-5.55c-2.3,0-3.5,.89-4.13,1.83-.63-.94-1.8-1.83-3.98-1.83h-5.92s-.07,0-.11,0c1.02-1.68,2.11-3.33,3.22-4.9h2.81c1.23,0,1.35,.44,1.43,.74l.33,1.18h4.49l.3-1.24c.06-.24,.17-.68,1.55-.68h2.78c1.1,1.57,2.2,3.22,3.22,4.9ZM24,4.84c1.29,1.49,2.86,3.39,4.49,5.54h-.41c-2.3,0-3.5,.89-4.13,1.83-.63-.94-1.8-1.83-3.98-1.83h-.45c1.63-2.15,3.19-4.05,4.48-5.54Zm6.97,38.85c-3.56,1.18-6.87,1.06-6.9,1.06h-.14c-.11,0-10.22,.35-14.18-6.66,.76,.2,1.62,.3,2.58,.3h6.94c1.65,0,1.84,.67,1.95,1.06l.33,1.18h4.83l.3-1.24c.08-.33,.25-1.01,2.09-1.01h6.5c1.15,0,2.14-.11,3.01-.34-1.45,2.62-3.89,4.51-7.31,5.64Z" fill="#41aa74"/></svg>