<svg xmlns="http://www.w3.org/2000/svg" width="48" height="48" viewBox="0 0 48 48"><polygon points="17.4 12.48 13.57 12.48 22.8 0 25.2 0 34.43 12.48 30.59 12.48 24 3.57 17.4 12.48" fill="#41aa74"/><path d="M43.24,30.28l0-.13-3,.23v.34a4.72,4.72,0,0,1-.9,3.33c-.6.59-1.84.9-3.57.9H29c-2.89,0-4.23,1.25-4.84,2.33h-.36C23.12,36.2,21.82,35,19.09,35h-7.2a4.54,4.54,0,0,1-3.19-.88,5,5,0,0,1-.87-3.35v-.34l-3-.23,0,.13a13.7,13.7,0,0,0,.16,5.46c1.37,5.33,5.15,9.15,10.94,11A26.17,26.17,0,0,0,23.6,48h.8a26.17,26.17,0,0,0,7.74-1.23c5.79-1.88,9.57-5.7,10.94-11A13.69,13.69,0,0,0,43.24,30.28Zm-16.6,8.91c.1-.38.29-1.16,2.31-1.16H35.7a11.32,11.32,0,0,0,3.4-.44,12.86,12.86,0,0,1-7.84,6.22,23,23,0,0,1-7.19,1.1h-.15a23.39,23.39,0,0,1-7.18-1.1,12.9,12.9,0,0,1-7.82-6.17,10.28,10.28,0,0,0,3,.39h7.2c1.82,0,2,.79,2.15,1.21l.32,1.12h4.79Z" fill="#41aa74"/><path d="M36.83,15.49v.27a5.29,5.29,0,0,1-1.34,3.94,5.56,5.56,0,0,1-4,1.28H27.15c-.85,0-.9.21-.92.31l-.29,1.18H22l-.31-1.13c-.05-.17-.11-.36-.84-.36H16.28a5.14,5.14,0,0,1-3.84-1.33,5.28,5.28,0,0,1-1.27-3.75v-.41h3.08v.27c0,1.2.28,1.62.4,1.74a2.48,2.48,0,0,0,1.63.39h4.59A3.91,3.91,0,0,1,24,19.13a4,4,0,0,1,3.2-1.24h4.31c1.35,0,1.78-.31,1.88-.41s.41-.52.41-1.72v-.27Z" fill="#41aa74"/><path d="M40.67,22.46v.31A6.61,6.61,0,0,1,39,27.67c-1.09,1.06-2.74,1.57-5,1.57H28.23c-1.55,0-1.69.55-1.75.82l-.29,1.17H21.75l-.32-1.12c-.1-.35-.24-.87-1.62-.87H13.66a6.4,6.4,0,0,1-4.78-1.62,6.7,6.7,0,0,1-1.55-4.71v-.45h3.09v.31a4,4,0,0,0,.68,2.7,3.64,3.64,0,0,0,2.56.68h6.15a4.42,4.42,0,0,1,4.1,2H24c.56-.93,1.76-2,4.27-2H34c1.79,0,2.56-.38,2.89-.7a3.83,3.83,0,0,0,.7-2.68v-.31Z" fill="#41aa74"/></svg>