<?xml version="1.0" encoding="UTF-8"?>
<svg xmlns="http://www.w3.org/2000/svg" xmlns:xlink="http://www.w3.org/1999/xlink" width="64pt" height="64pt" viewBox="0 0 64 64" version="1.1">
<g id="surface19689067">
<path style=" stroke:none;fill-rule:nonzero;fill:rgb(20.392157%,59.607846%,85.882354%);fill-opacity:1;" d="M 38.230469 3.851562 C 38.09375 3.871094 37.960938 3.910156 37.828125 3.96875 C 36.730469 4.515625 35.480469 6.136719 35.238281 6.453125 C 35.226562 6.476562 35.210938 6.496094 35.199219 6.515625 C 33.964844 8.363281 33.304688 10.53125 33.28125 12.785156 C 33.265625 14.476562 33.59375 16.148438 34.265625 17.765625 C 35.824219 21.511719 39.066406 24.609375 42.921875 26.058594 C 43.050781 26.105469 43.175781 26.148438 43.398438 26.230469 C 43.421875 26.238281 43.609375 26.300781 43.640625 26.304688 L 43.78125 26.355469 C 43.980469 26.421875 44.183594 26.484375 44.386719 26.523438 C 45.398438 26.730469 46.390625 26.84375 47.320312 26.875 C 47.480469 26.875 47.640625 26.878906 47.800781 26.878906 C 54.816406 26.878906 57.535156 21.929688 58.441406 20.28125 C 58.53125 20.121094 58.59375 19.988281 58.65625 19.910156 C 58.65625 19.90625 58.65625 19.90625 58.660156 19.898438 C 59.054688 19.316406 58.90625 18.519531 58.320312 18.121094 C 57.738281 17.726562 56.945312 17.875 56.546875 18.460938 L 56.539062 18.460938 C 54.671875 21.214844 51.46875 22.050781 47.035156 20.949219 C 46.703125 20.871094 46.34375 20.746094 46.023438 20.625 C 45.605469 20.476562 45.183594 20.300781 44.796875 20.109375 C 44.019531 19.726562 43.289062 19.265625 42.628906 18.753906 C 38.730469 15.730469 37.203125 9.433594 39.484375 5.800781 C 39.789062 5.316406 39.734375 4.683594 39.351562 4.261719 C 39.058594 3.941406 38.640625 3.796875 38.230469 3.851562 Z M 26.890625 6.398438 C 26.601562 6.394531 26.304688 6.488281 26.066406 6.691406 C 24.128906 8.265625 22.148438 10.84375 22.066406 10.949219 C 22.054688 10.96875 22.046875 10.984375 22.03125 11.003906 C 18.53125 16.101562 18.265625 23.351562 21.359375 29.476562 C 21.84375 30.445312 22.394531 31.371094 22.980469 32.21875 L 23.15625 32.46875 C 23.648438 33.195312 24.203125 34.015625 24.914062 34.65625 C 25.160156 34.933594 25.425781 35.203125 25.683594 35.464844 L 25.808594 35.59375 L 25.914062 35.699219 C 26.179688 35.953125 26.449219 36.214844 26.730469 36.464844 L 26.734375 36.464844 C 26.753906 36.496094 26.785156 36.515625 26.808594 36.539062 C 27.125 36.820312 27.445312 37.085938 27.871094 37.421875 L 27.984375 37.503906 C 28.316406 37.769531 28.648438 38.019531 28.996094 38.265625 C 29.03125 38.289062 29.066406 38.316406 29.101562 38.339844 C 29.21875 38.421875 29.339844 38.496094 29.460938 38.578125 L 29.578125 38.660156 L 29.71875 38.75 C 29.976562 38.921875 30.226562 39.074219 30.578125 39.28125 C 30.808594 39.421875 31.054688 39.558594 31.214844 39.640625 C 31.285156 39.679688 31.359375 39.71875 31.535156 39.816406 L 31.925781 40.019531 C 31.945312 40.03125 32.035156 40.070312 32.054688 40.078125 C 32.308594 40.210938 32.574219 40.335938 32.839844 40.453125 L 33.246094 40.636719 C 33.511719 40.75 33.78125 40.859375 34.109375 40.984375 L 34.261719 41.039062 C 34.269531 41.050781 34.394531 41.09375 34.40625 41.101562 C 34.644531 41.183594 34.890625 41.269531 35.136719 41.351562 L 35.695312 41.535156 C 35.976562 41.628906 36.300781 41.738281 36.65625 41.800781 C 38.398438 42.089844 40.09375 42.238281 41.699219 42.238281 C 41.890625 42.238281 42.078125 42.234375 42.265625 42.234375 C 56.394531 41.925781 60.070312 29.921875 60.105469 29.800781 C 60.28125 29.195312 59.996094 28.550781 59.425781 28.28125 C 58.855469 28.011719 58.175781 28.199219 57.820312 28.71875 C 54.238281 33.949219 47.46875 36.160156 40.574219 34.339844 C 40.253906 34.261719 39.945312 34.171875 39.558594 34.046875 C 39.496094 34.023438 39.441406 34.003906 39.335938 33.964844 C 39.109375 33.894531 38.890625 33.820312 38.640625 33.726562 L 38.285156 33.589844 C 38.078125 33.511719 37.875 33.429688 37.625 33.320312 L 37.460938 33.246094 C 37.15625 33.113281 36.859375 32.96875 36.59375 32.839844 L 35.863281 32.460938 C 35.699219 32.378906 35.554688 32.289062 35.328125 32.15625 L 35.203125 32.085938 L 35.078125 32.011719 C 34.894531 31.898438 34.710938 31.785156 34.539062 31.664062 L 34.421875 31.589844 C 34.410156 31.585938 34.308594 31.515625 34.300781 31.503906 C 34.148438 31.410156 34.003906 31.316406 33.863281 31.226562 C 33.554688 31.003906 33.25 30.773438 32.894531 30.496094 L 32.753906 30.378906 C 29.453125 27.746094 27.015625 24.226562 25.871094 20.449219 C 24.804688 16.984375 25.59375 12.449219 27.984375 8.320312 C 28.296875 7.785156 28.179688 7.105469 27.703125 6.703125 C 27.46875 6.503906 27.179688 6.398438 26.890625 6.398438 Z M 12.804688 10.238281 C 12.5 10.238281 12.191406 10.351562 11.945312 10.570312 C 9.5 12.765625 7.671875 15.609375 7.46875 15.933594 C 2.238281 23.550781 3.25 35.386719 6.839844 42.621094 C 6.910156 42.769531 6.984375 42.914062 7.058594 43.058594 L 7.109375 43.140625 C 7.175781 43.285156 7.25 43.433594 7.273438 43.464844 C 7.316406 43.558594 7.375 43.664062 7.398438 43.695312 C 7.460938 43.820312 7.519531 43.929688 7.628906 44.121094 L 8.039062 44.824219 C 8.101562 44.921875 8.160156 45.019531 8.179688 45.054688 C 8.261719 45.183594 8.34375 45.320312 8.429688 45.453125 L 8.628906 45.773438 C 8.691406 45.871094 8.75 45.953125 8.789062 46.003906 C 8.988281 46.316406 9.191406 46.625 9.410156 46.921875 C 9.421875 46.933594 9.429688 46.945312 9.441406 46.953125 L 9.519531 47.066406 C 9.699219 47.324219 9.886719 47.574219 10.050781 47.78125 L 10.78125 48.703125 C 10.789062 48.714844 10.871094 48.808594 10.875 48.820312 L 10.980469 48.941406 C 11.199219 49.210938 11.433594 49.480469 11.671875 49.738281 C 11.703125 49.78125 11.738281 49.816406 11.773438 49.855469 C 12 50.101562 12.230469 50.34375 12.46875 50.601562 L 12.699219 50.820312 C 12.890625 51.019531 13.078125 51.214844 13.28125 51.398438 C 13.28125 51.40625 13.375 51.496094 13.375 51.496094 L 13.574219 51.679688 C 13.816406 51.910156 14.066406 52.140625 14.253906 52.300781 C 14.265625 52.316406 14.445312 52.46875 14.460938 52.480469 C 14.695312 52.691406 14.929688 52.890625 15.171875 53.085938 L 16.394531 54.054688 C 16.601562 54.203125 16.808594 54.355469 17.050781 54.53125 C 17.128906 54.589844 17.214844 54.648438 17.300781 54.703125 C 17.335938 54.734375 17.375 54.765625 17.398438 54.78125 L 18.320312 55.394531 C 18.65625 55.613281 18.988281 55.820312 19.398438 56.066406 L 19.621094 56.191406 C 19.875 56.339844 20.136719 56.488281 20.378906 56.621094 C 20.523438 56.699219 20.671875 56.769531 20.796875 56.835938 C 20.96875 56.929688 21.160156 57.035156 21.449219 57.175781 C 21.476562 57.191406 21.679688 57.289062 21.703125 57.300781 C 21.996094 57.445312 22.289062 57.578125 22.660156 57.746094 C 22.660156 57.75 22.78125 57.804688 22.78125 57.804688 C 23.121094 57.949219 23.449219 58.089844 23.886719 58.265625 C 23.953125 58.296875 24.023438 58.320312 24.039062 58.324219 C 24.351562 58.445312 24.675781 58.566406 24.941406 58.660156 C 24.964844 58.671875 25.101562 58.726562 25.125 58.734375 C 25.480469 58.855469 25.828125 58.96875 26.28125 59.109375 C 26.355469 59.136719 26.433594 59.160156 26.445312 59.160156 L 26.699219 59.238281 C 27.011719 59.335938 27.320312 59.433594 27.65625 59.5 C 30.035156 59.933594 32.359375 60.160156 34.558594 60.160156 L 34.566406 60.160156 C 52.898438 60.160156 58.738281 45.40625 58.800781 45.253906 C 59.023438 44.660156 58.78125 43.988281 58.21875 43.679688 C 57.671875 43.375 56.96875 43.519531 56.578125 44.023438 C 51.875 50.21875 43 52.519531 32.839844 50.183594 C 32.59375 50.125 32.34375 50.054688 32.101562 49.980469 L 31.621094 49.835938 C 31.296875 49.734375 30.96875 49.625 30.65625 49.515625 C 30.648438 49.515625 30.503906 49.460938 30.503906 49.460938 C 30.226562 49.363281 29.945312 49.253906 29.699219 49.160156 L 29.421875 49.050781 C 29.109375 48.925781 28.800781 48.796875 28.5 48.660156 L 28.324219 48.585938 C 28.054688 48.460938 27.796875 48.339844 27.535156 48.210938 C 27.515625 48.199219 27.308594 48.101562 27.289062 48.09375 C 27.109375 48.003906 26.929688 47.910156 26.699219 47.785156 L 25.65625 47.226562 C 25.550781 47.15625 25.441406 47.089844 25.335938 47.035156 C 25.019531 46.839844 24.695312 46.644531 24.375 46.441406 C 24.300781 46.394531 24.234375 46.34375 24.109375 46.261719 C 23.890625 46.121094 23.675781 45.976562 23.359375 45.753906 L 23.234375 45.664062 C 23.019531 45.515625 22.808594 45.355469 22.636719 45.226562 C 22.523438 45.144531 22.414062 45.054688 22.234375 44.921875 C 22.074219 44.796875 21.914062 44.675781 21.765625 44.554688 L 21.484375 44.324219 C 21.25 44.136719 21.03125 43.933594 20.800781 43.738281 C 20.769531 43.710938 20.746094 43.691406 20.710938 43.664062 C 20.453125 43.429688 20.195312 43.195312 19.886719 42.898438 L 18.980469 42 C 18.761719 41.773438 18.539062 41.546875 18.289062 41.269531 C 18.058594 41.015625 17.839844 40.761719 17.546875 40.410156 L 17.003906 39.75 C 16.941406 39.65625 16.871094 39.558594 16.785156 39.460938 C 16.601562 39.210938 16.414062 38.964844 16.230469 38.703125 C 11.25 31.84375 9.949219 17.523438 13.828125 12.28125 C 14.21875 11.753906 14.148438 11.015625 13.660156 10.570312 C 13.421875 10.351562 13.109375 10.238281 12.804688 10.238281 Z M 12.804688 10.238281 "/>
</g>
</svg>
